<?xml version="1.0" encoding="utf-8" standalone="no"?>
<!DOCTYPE svg PUBLIC "-//W3C//DTD SVG 1.1//EN"
  "http://www.w3.org/Graphics/SVG/1.1/DTD/svg11.dtd">
<svg height="344.182188pt" version="1.1" viewBox="0 0 689.922268 344.182188" width="689.922268pt" xmlns="http://www.w3.org/2000/svg" xmlns:xlink="http://www.w3.org/1999/xlink">
 <metadata>
  <rdf:RDF xmlns:cc="http://creativecommons.org/ns#" xmlns:dc="http://purl.org/dc/elements/1.1/" xmlns:rdf="http://www.w3.org/1999/02/22-rdf-syntax-ns#">
   <cc:Work>
    <dc:type rdf:resource="http://purl.org/dc/dcmitype/StillImage"/>
    <dc:date>2022-12-21T11:53:09.859865</dc:date>
    <dc:format>image/svg+xml</dc:format>
    <dc:creator>
     <cc:Agent>
      <dc:title>Matplotlib v3.4.3, https://matplotlib.org/</dc:title>
     </cc:Agent>
    </dc:creator>
   </cc:Work>
  </rdf:RDF>
 </metadata>
 <defs>
  <style type="text/css">*{stroke-linecap:butt;stroke-linejoin:round;}</style>
 </defs>
 <g id="figure_1">
  <g id="patch_1">
   <path d="M 0 344.182188 
L 689.922268 344.182188 
L 689.922268 0 
L 0 0 
z
" style="fill:none;"/>
  </g>
  <g id="axes_1">
   <g id="patch_2">
    <path d="M 80.5 278.317187 
L 482.423588 278.317187 
L 482.423588 26.877187 
L 80.5 26.877187 
z
" style="fill:#ffffff;"/>
   </g>
   <g id="matplotlib.axis_1">
    <g id="xtick_1">
     <g id="line2d_1">
      <defs>
       <path d="M 0 0 
L 0 4.8 
" id="m954732a70c" style="stroke:#000000;"/>
      </defs>
      <g>
       <use style="stroke:#000000;" x="98.769254" xlink:href="#m954732a70c" y="278.317187"/>
      </g>
     </g>
     <g id="text_1">
      <!-- 0 -->
      <g transform="translate(93.679254 298.774687)scale(0.16 -0.16)">
       <defs>
        <path d="M 2034 4250 
Q 1547 4250 1301 3770 
Q 1056 3291 1056 2328 
Q 1056 1369 1301 889 
Q 1547 409 2034 409 
Q 2525 409 2770 889 
Q 3016 1369 3016 2328 
Q 3016 3291 2770 3770 
Q 2525 4250 2034 4250 
z
M 2034 4750 
Q 2819 4750 3233 4129 
Q 3647 3509 3647 2328 
Q 3647 1150 3233 529 
Q 2819 -91 2034 -91 
Q 1250 -91 836 529 
Q 422 1150 422 2328 
Q 422 3509 836 4129 
Q 1250 4750 2034 4750 
z
" id="DejaVuSans-30" transform="scale(0.015625)"/>
       </defs>
       <use xlink:href="#DejaVuSans-30"/>
      </g>
     </g>
    </g>
    <g id="xtick_2">
     <g id="line2d_2">
      <g>
       <use style="stroke:#000000;" x="187.974596" xlink:href="#m954732a70c" y="278.317187"/>
      </g>
     </g>
     <g id="text_2">
      <!-- 5 -->
      <g transform="translate(182.884596 298.774687)scale(0.16 -0.16)">
       <defs>
        <path d="M 691 4666 
L 3169 4666 
L 3169 4134 
L 1269 4134 
L 1269 2991 
Q 1406 3038 1543 3061 
Q 1681 3084 1819 3084 
Q 2600 3084 3056 2656 
Q 3513 2228 3513 1497 
Q 3513 744 3044 326 
Q 2575 -91 1722 -91 
Q 1428 -91 1123 -41 
Q 819 9 494 109 
L 494 744 
Q 775 591 1075 516 
Q 1375 441 1709 441 
Q 2250 441 2565 725 
Q 2881 1009 2881 1497 
Q 2881 1984 2565 2268 
Q 2250 2553 1709 2553 
Q 1456 2553 1204 2497 
Q 953 2441 691 2322 
L 691 4666 
z
" id="DejaVuSans-35" transform="scale(0.015625)"/>
       </defs>
       <use xlink:href="#DejaVuSans-35"/>
      </g>
     </g>
    </g>
    <g id="xtick_3">
     <g id="line2d_3">
      <g>
       <use style="stroke:#000000;" x="277.179938" xlink:href="#m954732a70c" y="278.317187"/>
      </g>
     </g>
     <g id="text_3">
      <!-- 10 -->
      <g transform="translate(266.999938 298.774687)scale(0.16 -0.16)">
       <defs>
        <path d="M 794 531 
L 1825 531 
L 1825 4091 
L 703 3866 
L 703 4441 
L 1819 4666 
L 2450 4666 
L 2450 531 
L 3481 531 
L 3481 0 
L 794 0 
L 794 531 
z
" id="DejaVuSans-31" transform="scale(0.015625)"/>
       </defs>
       <use xlink:href="#DejaVuSans-31"/>
       <use x="63.623047" xlink:href="#DejaVuSans-30"/>
      </g>
     </g>
    </g>
    <g id="xtick_4">
     <g id="line2d_4">
      <g>
       <use style="stroke:#000000;" x="366.38528" xlink:href="#m954732a70c" y="278.317187"/>
      </g>
     </g>
     <g id="text_4">
      <!-- 15 -->
      <g transform="translate(356.20528 298.774687)scale(0.16 -0.16)">
       <use xlink:href="#DejaVuSans-31"/>
       <use x="63.623047" xlink:href="#DejaVuSans-35"/>
      </g>
     </g>
    </g>
    <g id="xtick_5">
     <g id="line2d_5">
      <g>
       <use style="stroke:#000000;" x="455.590621" xlink:href="#m954732a70c" y="278.317187"/>
      </g>
     </g>
     <g id="text_5">
      <!-- 20 -->
      <g transform="translate(445.410621 298.774687)scale(0.16 -0.16)">
       <defs>
        <path d="M 1228 531 
L 3431 531 
L 3431 0 
L 469 0 
L 469 531 
Q 828 903 1448 1529 
Q 2069 2156 2228 2338 
Q 2531 2678 2651 2914 
Q 2772 3150 2772 3378 
Q 2772 3750 2511 3984 
Q 2250 4219 1831 4219 
Q 1534 4219 1204 4116 
Q 875 4013 500 3803 
L 500 4441 
Q 881 4594 1212 4672 
Q 1544 4750 1819 4750 
Q 2544 4750 2975 4387 
Q 3406 4025 3406 3419 
Q 3406 3131 3298 2873 
Q 3191 2616 2906 2266 
Q 2828 2175 2409 1742 
Q 1991 1309 1228 531 
z
" id="DejaVuSans-32" transform="scale(0.015625)"/>
       </defs>
       <use xlink:href="#DejaVuSans-32"/>
       <use x="63.623047" xlink:href="#DejaVuSans-30"/>
      </g>
     </g>
    </g>
    <g id="text_6">
     <!-- Total Error -->
     <g transform="translate(235.650388 319.779375)scale(0.18 -0.18)">
      <defs>
       <path d="M -19 4666 
L 3928 4666 
L 3928 4134 
L 2272 4134 
L 2272 0 
L 1638 0 
L 1638 4134 
L -19 4134 
L -19 4666 
z
" id="DejaVuSans-54" transform="scale(0.015625)"/>
       <path d="M 1959 3097 
Q 1497 3097 1228 2736 
Q 959 2375 959 1747 
Q 959 1119 1226 758 
Q 1494 397 1959 397 
Q 2419 397 2687 759 
Q 2956 1122 2956 1747 
Q 2956 2369 2687 2733 
Q 2419 3097 1959 3097 
z
M 1959 3584 
Q 2709 3584 3137 3096 
Q 3566 2609 3566 1747 
Q 3566 888 3137 398 
Q 2709 -91 1959 -91 
Q 1206 -91 779 398 
Q 353 888 353 1747 
Q 353 2609 779 3096 
Q 1206 3584 1959 3584 
z
" id="DejaVuSans-6f" transform="scale(0.015625)"/>
       <path d="M 1172 4494 
L 1172 3500 
L 2356 3500 
L 2356 3053 
L 1172 3053 
L 1172 1153 
Q 1172 725 1289 603 
Q 1406 481 1766 481 
L 2356 481 
L 2356 0 
L 1766 0 
Q 1100 0 847 248 
Q 594 497 594 1153 
L 594 3053 
L 172 3053 
L 172 3500 
L 594 3500 
L 594 4494 
L 1172 4494 
z
" id="DejaVuSans-74" transform="scale(0.015625)"/>
       <path d="M 2194 1759 
Q 1497 1759 1228 1600 
Q 959 1441 959 1056 
Q 959 750 1161 570 
Q 1363 391 1709 391 
Q 2188 391 2477 730 
Q 2766 1069 2766 1631 
L 2766 1759 
L 2194 1759 
z
M 3341 1997 
L 3341 0 
L 2766 0 
L 2766 531 
Q 2569 213 2275 61 
Q 1981 -91 1556 -91 
Q 1019 -91 701 211 
Q 384 513 384 1019 
Q 384 1609 779 1909 
Q 1175 2209 1959 2209 
L 2766 2209 
L 2766 2266 
Q 2766 2663 2505 2880 
Q 2244 3097 1772 3097 
Q 1472 3097 1187 3025 
Q 903 2953 641 2809 
L 641 3341 
Q 956 3463 1253 3523 
Q 1550 3584 1831 3584 
Q 2591 3584 2966 3190 
Q 3341 2797 3341 1997 
z
" id="DejaVuSans-61" transform="scale(0.015625)"/>
       <path d="M 603 4863 
L 1178 4863 
L 1178 0 
L 603 0 
L 603 4863 
z
" id="DejaVuSans-6c" transform="scale(0.015625)"/>
       <path id="DejaVuSans-20" transform="scale(0.015625)"/>
       <path d="M 628 4666 
L 3578 4666 
L 3578 4134 
L 1259 4134 
L 1259 2753 
L 3481 2753 
L 3481 2222 
L 1259 2222 
L 1259 531 
L 3634 531 
L 3634 0 
L 628 0 
L 628 4666 
z
" id="DejaVuSans-45" transform="scale(0.015625)"/>
       <path d="M 2631 2963 
Q 2534 3019 2420 3045 
Q 2306 3072 2169 3072 
Q 1681 3072 1420 2755 
Q 1159 2438 1159 1844 
L 1159 0 
L 581 0 
L 581 3500 
L 1159 3500 
L 1159 2956 
Q 1341 3275 1631 3429 
Q 1922 3584 2338 3584 
Q 2397 3584 2469 3576 
Q 2541 3569 2628 3553 
L 2631 2963 
z
" id="DejaVuSans-72" transform="scale(0.015625)"/>
      </defs>
      <use xlink:href="#DejaVuSans-54"/>
      <use x="44.083984" xlink:href="#DejaVuSans-6f"/>
      <use x="105.265625" xlink:href="#DejaVuSans-74"/>
      <use x="144.474609" xlink:href="#DejaVuSans-61"/>
      <use x="205.753906" xlink:href="#DejaVuSans-6c"/>
      <use x="233.537109" xlink:href="#DejaVuSans-20"/>
      <use x="265.324219" xlink:href="#DejaVuSans-45"/>
      <use x="328.507812" xlink:href="#DejaVuSans-72"/>
      <use x="367.871094" xlink:href="#DejaVuSans-72"/>
      <use x="406.734375" xlink:href="#DejaVuSans-6f"/>
      <use x="467.916016" xlink:href="#DejaVuSans-72"/>
     </g>
    </g>
   </g>
   <g id="matplotlib.axis_2">
    <g id="ytick_1">
     <g id="line2d_6">
      <defs>
       <path d="M 0 0 
L -4.8 0 
" id="m38b362bbb6" style="stroke:#000000;"/>
      </defs>
      <g>
       <use style="stroke:#000000;" x="80.5" xlink:href="#m38b362bbb6" y="262.971089"/>
      </g>
     </g>
     <g id="text_7">
      <!-- $\mathdefault{10^{-5}}$ -->
      <g transform="translate(34.6 269.049839)scale(0.16 -0.16)">
       <defs>
        <path d="M 678 2272 
L 4684 2272 
L 4684 1741 
L 678 1741 
L 678 2272 
z
" id="DejaVuSans-2212" transform="scale(0.015625)"/>
       </defs>
       <use transform="translate(0 0.684375)" xlink:href="#DejaVuSans-31"/>
       <use transform="translate(63.623047 0.684375)" xlink:href="#DejaVuSans-30"/>
       <use transform="translate(128.203125 38.965625)scale(0.7)" xlink:href="#DejaVuSans-2212"/>
       <use transform="translate(186.855469 38.965625)scale(0.7)" xlink:href="#DejaVuSans-35"/>
      </g>
     </g>
    </g>
    <g id="ytick_2">
     <g id="line2d_7">
      <g>
       <use style="stroke:#000000;" x="80.5" xlink:href="#m38b362bbb6" y="218.812972"/>
      </g>
     </g>
     <g id="text_8">
      <!-- $\mathdefault{10^{-4}}$ -->
      <g transform="translate(34.6 224.891722)scale(0.16 -0.16)">
       <defs>
        <path d="M 2419 4116 
L 825 1625 
L 2419 1625 
L 2419 4116 
z
M 2253 4666 
L 3047 4666 
L 3047 1625 
L 3713 1625 
L 3713 1100 
L 3047 1100 
L 3047 0 
L 2419 0 
L 2419 1100 
L 313 1100 
L 313 1709 
L 2253 4666 
z
" id="DejaVuSans-34" transform="scale(0.015625)"/>
       </defs>
       <use transform="translate(0 0.684375)" xlink:href="#DejaVuSans-31"/>
       <use transform="translate(63.623047 0.684375)" xlink:href="#DejaVuSans-30"/>
       <use transform="translate(128.203125 38.965625)scale(0.7)" xlink:href="#DejaVuSans-2212"/>
       <use transform="translate(186.855469 38.965625)scale(0.7)" xlink:href="#DejaVuSans-34"/>
      </g>
     </g>
    </g>
    <g id="ytick_3">
     <g id="line2d_8">
      <g>
       <use style="stroke:#000000;" x="80.5" xlink:href="#m38b362bbb6" y="174.654856"/>
      </g>
     </g>
     <g id="text_9">
      <!-- $\mathdefault{10^{-3}}$ -->
      <g transform="translate(34.6 180.733606)scale(0.16 -0.16)">
       <defs>
        <path d="M 2597 2516 
Q 3050 2419 3304 2112 
Q 3559 1806 3559 1356 
Q 3559 666 3084 287 
Q 2609 -91 1734 -91 
Q 1441 -91 1130 -33 
Q 819 25 488 141 
L 488 750 
Q 750 597 1062 519 
Q 1375 441 1716 441 
Q 2309 441 2620 675 
Q 2931 909 2931 1356 
Q 2931 1769 2642 2001 
Q 2353 2234 1838 2234 
L 1294 2234 
L 1294 2753 
L 1863 2753 
Q 2328 2753 2575 2939 
Q 2822 3125 2822 3475 
Q 2822 3834 2567 4026 
Q 2313 4219 1838 4219 
Q 1578 4219 1281 4162 
Q 984 4106 628 3988 
L 628 4550 
Q 988 4650 1302 4700 
Q 1616 4750 1894 4750 
Q 2613 4750 3031 4423 
Q 3450 4097 3450 3541 
Q 3450 3153 3228 2886 
Q 3006 2619 2597 2516 
z
" id="DejaVuSans-33" transform="scale(0.015625)"/>
       </defs>
       <use transform="translate(0 0.765625)" xlink:href="#DejaVuSans-31"/>
       <use transform="translate(63.623047 0.765625)" xlink:href="#DejaVuSans-30"/>
       <use transform="translate(128.203125 39.046875)scale(0.7)" xlink:href="#DejaVuSans-2212"/>
       <use transform="translate(186.855469 39.046875)scale(0.7)" xlink:href="#DejaVuSans-33"/>
      </g>
     </g>
    </g>
    <g id="ytick_4">
     <g id="line2d_9">
      <g>
       <use style="stroke:#000000;" x="80.5" xlink:href="#m38b362bbb6" y="130.496739"/>
      </g>
     </g>
     <g id="text_10">
      <!-- $\mathdefault{10^{-2}}$ -->
      <g transform="translate(34.6 136.575489)scale(0.16 -0.16)">
       <use transform="translate(0 0.765625)" xlink:href="#DejaVuSans-31"/>
       <use transform="translate(63.623047 0.765625)" xlink:href="#DejaVuSans-30"/>
       <use transform="translate(128.203125 39.046875)scale(0.7)" xlink:href="#DejaVuSans-2212"/>
       <use transform="translate(186.855469 39.046875)scale(0.7)" xlink:href="#DejaVuSans-32"/>
      </g>
     </g>
    </g>
    <g id="ytick_5">
     <g id="line2d_10">
      <g>
       <use style="stroke:#000000;" x="80.5" xlink:href="#m38b362bbb6" y="86.338622"/>
      </g>
     </g>
     <g id="text_11">
      <!-- $\mathdefault{10^{-1}}$ -->
      <g transform="translate(34.6 92.417372)scale(0.16 -0.16)">
       <use transform="translate(0 0.684375)" xlink:href="#DejaVuSans-31"/>
       <use transform="translate(63.623047 0.684375)" xlink:href="#DejaVuSans-30"/>
       <use transform="translate(128.203125 38.965625)scale(0.7)" xlink:href="#DejaVuSans-2212"/>
       <use transform="translate(186.855469 38.965625)scale(0.7)" xlink:href="#DejaVuSans-31"/>
      </g>
     </g>
    </g>
    <g id="ytick_6">
     <g id="line2d_11">
      <g>
       <use style="stroke:#000000;" x="80.5" xlink:href="#m38b362bbb6" y="42.180506"/>
      </g>
     </g>
     <g id="text_12">
      <!-- $\mathdefault{10^{0}}$ -->
      <g transform="translate(44.04 48.259256)scale(0.16 -0.16)">
       <use transform="translate(0 0.765625)" xlink:href="#DejaVuSans-31"/>
       <use transform="translate(63.623047 0.765625)" xlink:href="#DejaVuSans-30"/>
       <use transform="translate(128.203125 39.046875)scale(0.7)" xlink:href="#DejaVuSans-30"/>
      </g>
     </g>
    </g>
    <g id="ytick_7">
     <g id="line2d_12">
      <defs>
       <path d="M 0 0 
L -3.2 0 
" id="m2489d80e64" style="stroke:#000000;stroke-width:0.8;"/>
      </defs>
      <g>
       <use style="stroke:#000000;stroke-width:0.8;" x="80.5" xlink:href="#m2489d80e64" y="276.264007"/>
      </g>
     </g>
    </g>
    <g id="ytick_8">
     <g id="line2d_13">
      <g>
       <use style="stroke:#000000;stroke-width:0.8;" x="80.5" xlink:href="#m2489d80e64" y="272.767512"/>
      </g>
     </g>
    </g>
    <g id="ytick_9">
     <g id="line2d_14">
      <g>
       <use style="stroke:#000000;stroke-width:0.8;" x="80.5" xlink:href="#m2489d80e64" y="269.811268"/>
      </g>
     </g>
    </g>
    <g id="ytick_10">
     <g id="line2d_15">
      <g>
       <use style="stroke:#000000;stroke-width:0.8;" x="80.5" xlink:href="#m2489d80e64" y="267.250453"/>
      </g>
     </g>
    </g>
    <g id="ytick_11">
     <g id="line2d_16">
      <g>
       <use style="stroke:#000000;stroke-width:0.8;" x="80.5" xlink:href="#m2489d80e64" y="264.991654"/>
      </g>
     </g>
    </g>
    <g id="ytick_12">
     <g id="line2d_17">
      <g>
       <use style="stroke:#000000;stroke-width:0.8;" x="80.5" xlink:href="#m2489d80e64" y="249.678171"/>
      </g>
     </g>
    </g>
    <g id="ytick_13">
     <g id="line2d_18">
      <g>
       <use style="stroke:#000000;stroke-width:0.8;" x="80.5" xlink:href="#m2489d80e64" y="241.902313"/>
      </g>
     </g>
    </g>
    <g id="ytick_14">
     <g id="line2d_19">
      <g>
       <use style="stroke:#000000;stroke-width:0.8;" x="80.5" xlink:href="#m2489d80e64" y="236.385254"/>
      </g>
     </g>
    </g>
    <g id="ytick_15">
     <g id="line2d_20">
      <g>
       <use style="stroke:#000000;stroke-width:0.8;" x="80.5" xlink:href="#m2489d80e64" y="232.10589"/>
      </g>
     </g>
    </g>
    <g id="ytick_16">
     <g id="line2d_21">
      <g>
       <use style="stroke:#000000;stroke-width:0.8;" x="80.5" xlink:href="#m2489d80e64" y="228.609395"/>
      </g>
     </g>
    </g>
    <g id="ytick_17">
     <g id="line2d_22">
      <g>
       <use style="stroke:#000000;stroke-width:0.8;" x="80.5" xlink:href="#m2489d80e64" y="225.653151"/>
      </g>
     </g>
    </g>
    <g id="ytick_18">
     <g id="line2d_23">
      <g>
       <use style="stroke:#000000;stroke-width:0.8;" x="80.5" xlink:href="#m2489d80e64" y="223.092336"/>
      </g>
     </g>
    </g>
    <g id="ytick_19">
     <g id="line2d_24">
      <g>
       <use style="stroke:#000000;stroke-width:0.8;" x="80.5" xlink:href="#m2489d80e64" y="220.833537"/>
      </g>
     </g>
    </g>
    <g id="ytick_20">
     <g id="line2d_25">
      <g>
       <use style="stroke:#000000;stroke-width:0.8;" x="80.5" xlink:href="#m2489d80e64" y="205.520055"/>
      </g>
     </g>
    </g>
    <g id="ytick_21">
     <g id="line2d_26">
      <g>
       <use style="stroke:#000000;stroke-width:0.8;" x="80.5" xlink:href="#m2489d80e64" y="197.744196"/>
      </g>
     </g>
    </g>
    <g id="ytick_22">
     <g id="line2d_27">
      <g>
       <use style="stroke:#000000;stroke-width:0.8;" x="80.5" xlink:href="#m2489d80e64" y="192.227137"/>
      </g>
     </g>
    </g>
    <g id="ytick_23">
     <g id="line2d_28">
      <g>
       <use style="stroke:#000000;stroke-width:0.8;" x="80.5" xlink:href="#m2489d80e64" y="187.947773"/>
      </g>
     </g>
    </g>
    <g id="ytick_24">
     <g id="line2d_29">
      <g>
       <use style="stroke:#000000;stroke-width:0.8;" x="80.5" xlink:href="#m2489d80e64" y="184.451279"/>
      </g>
     </g>
    </g>
    <g id="ytick_25">
     <g id="line2d_30">
      <g>
       <use style="stroke:#000000;stroke-width:0.8;" x="80.5" xlink:href="#m2489d80e64" y="181.495034"/>
      </g>
     </g>
    </g>
    <g id="ytick_26">
     <g id="line2d_31">
      <g>
       <use style="stroke:#000000;stroke-width:0.8;" x="80.5" xlink:href="#m2489d80e64" y="178.934219"/>
      </g>
     </g>
    </g>
    <g id="ytick_27">
     <g id="line2d_32">
      <g>
       <use style="stroke:#000000;stroke-width:0.8;" x="80.5" xlink:href="#m2489d80e64" y="176.67542"/>
      </g>
     </g>
    </g>
    <g id="ytick_28">
     <g id="line2d_33">
      <g>
       <use style="stroke:#000000;stroke-width:0.8;" x="80.5" xlink:href="#m2489d80e64" y="161.361938"/>
      </g>
     </g>
    </g>
    <g id="ytick_29">
     <g id="line2d_34">
      <g>
       <use style="stroke:#000000;stroke-width:0.8;" x="80.5" xlink:href="#m2489d80e64" y="153.58608"/>
      </g>
     </g>
    </g>
    <g id="ytick_30">
     <g id="line2d_35">
      <g>
       <use style="stroke:#000000;stroke-width:0.8;" x="80.5" xlink:href="#m2489d80e64" y="148.06902"/>
      </g>
     </g>
    </g>
    <g id="ytick_31">
     <g id="line2d_36">
      <g>
       <use style="stroke:#000000;stroke-width:0.8;" x="80.5" xlink:href="#m2489d80e64" y="143.789657"/>
      </g>
     </g>
    </g>
    <g id="ytick_32">
     <g id="line2d_37">
      <g>
       <use style="stroke:#000000;stroke-width:0.8;" x="80.5" xlink:href="#m2489d80e64" y="140.293162"/>
      </g>
     </g>
    </g>
    <g id="ytick_33">
     <g id="line2d_38">
      <g>
       <use style="stroke:#000000;stroke-width:0.8;" x="80.5" xlink:href="#m2489d80e64" y="137.336918"/>
      </g>
     </g>
    </g>
    <g id="ytick_34">
     <g id="line2d_39">
      <g>
       <use style="stroke:#000000;stroke-width:0.8;" x="80.5" xlink:href="#m2489d80e64" y="134.776103"/>
      </g>
     </g>
    </g>
    <g id="ytick_35">
     <g id="line2d_40">
      <g>
       <use style="stroke:#000000;stroke-width:0.8;" x="80.5" xlink:href="#m2489d80e64" y="132.517304"/>
      </g>
     </g>
    </g>
    <g id="ytick_36">
     <g id="line2d_41">
      <g>
       <use style="stroke:#000000;stroke-width:0.8;" x="80.5" xlink:href="#m2489d80e64" y="117.203821"/>
      </g>
     </g>
    </g>
    <g id="ytick_37">
     <g id="line2d_42">
      <g>
       <use style="stroke:#000000;stroke-width:0.8;" x="80.5" xlink:href="#m2489d80e64" y="109.427963"/>
      </g>
     </g>
    </g>
    <g id="ytick_38">
     <g id="line2d_43">
      <g>
       <use style="stroke:#000000;stroke-width:0.8;" x="80.5" xlink:href="#m2489d80e64" y="103.910904"/>
      </g>
     </g>
    </g>
    <g id="ytick_39">
     <g id="line2d_44">
      <g>
       <use style="stroke:#000000;stroke-width:0.8;" x="80.5" xlink:href="#m2489d80e64" y="99.63154"/>
      </g>
     </g>
    </g>
    <g id="ytick_40">
     <g id="line2d_45">
      <g>
       <use style="stroke:#000000;stroke-width:0.8;" x="80.5" xlink:href="#m2489d80e64" y="96.135045"/>
      </g>
     </g>
    </g>
    <g id="ytick_41">
     <g id="line2d_46">
      <g>
       <use style="stroke:#000000;stroke-width:0.8;" x="80.5" xlink:href="#m2489d80e64" y="93.178801"/>
      </g>
     </g>
    </g>
    <g id="ytick_42">
     <g id="line2d_47">
      <g>
       <use style="stroke:#000000;stroke-width:0.8;" x="80.5" xlink:href="#m2489d80e64" y="90.617986"/>
      </g>
     </g>
    </g>
    <g id="ytick_43">
     <g id="line2d_48">
      <g>
       <use style="stroke:#000000;stroke-width:0.8;" x="80.5" xlink:href="#m2489d80e64" y="88.359187"/>
      </g>
     </g>
    </g>
    <g id="ytick_44">
     <g id="line2d_49">
      <g>
       <use style="stroke:#000000;stroke-width:0.8;" x="80.5" xlink:href="#m2489d80e64" y="73.045705"/>
      </g>
     </g>
    </g>
    <g id="ytick_45">
     <g id="line2d_50">
      <g>
       <use style="stroke:#000000;stroke-width:0.8;" x="80.5" xlink:href="#m2489d80e64" y="65.269846"/>
      </g>
     </g>
    </g>
    <g id="ytick_46">
     <g id="line2d_51">
      <g>
       <use style="stroke:#000000;stroke-width:0.8;" x="80.5" xlink:href="#m2489d80e64" y="59.752787"/>
      </g>
     </g>
    </g>
    <g id="ytick_47">
     <g id="line2d_52">
      <g>
       <use style="stroke:#000000;stroke-width:0.8;" x="80.5" xlink:href="#m2489d80e64" y="55.473423"/>
      </g>
     </g>
    </g>
    <g id="ytick_48">
     <g id="line2d_53">
      <g>
       <use style="stroke:#000000;stroke-width:0.8;" x="80.5" xlink:href="#m2489d80e64" y="51.976929"/>
      </g>
     </g>
    </g>
    <g id="ytick_49">
     <g id="line2d_54">
      <g>
       <use style="stroke:#000000;stroke-width:0.8;" x="80.5" xlink:href="#m2489d80e64" y="49.020685"/>
      </g>
     </g>
    </g>
    <g id="ytick_50">
     <g id="line2d_55">
      <g>
       <use style="stroke:#000000;stroke-width:0.8;" x="80.5" xlink:href="#m2489d80e64" y="46.459869"/>
      </g>
     </g>
    </g>
    <g id="ytick_51">
     <g id="line2d_56">
      <g>
       <use style="stroke:#000000;stroke-width:0.8;" x="80.5" xlink:href="#m2489d80e64" y="44.20107"/>
      </g>
     </g>
    </g>
    <g id="ytick_52">
     <g id="line2d_57">
      <g>
       <use style="stroke:#000000;stroke-width:0.8;" x="80.5" xlink:href="#m2489d80e64" y="28.887588"/>
      </g>
     </g>
    </g>
    <g id="text_13">
     <!-- Absolute Gradient $\overline{\left |\partial_{\theta_k} C\right |}$ -->
     <g transform="translate(25.56 260.777187)rotate(-90)scale(0.18 -0.18)">
      <defs>
       <path d="M 2188 4044 
L 1331 1722 
L 3047 1722 
L 2188 4044 
z
M 1831 4666 
L 2547 4666 
L 4325 0 
L 3669 0 
L 3244 1197 
L 1141 1197 
L 716 0 
L 50 0 
L 1831 4666 
z
" id="DejaVuSans-41" transform="scale(0.015625)"/>
       <path d="M 3116 1747 
Q 3116 2381 2855 2742 
Q 2594 3103 2138 3103 
Q 1681 3103 1420 2742 
Q 1159 2381 1159 1747 
Q 1159 1113 1420 752 
Q 1681 391 2138 391 
Q 2594 391 2855 752 
Q 3116 1113 3116 1747 
z
M 1159 2969 
Q 1341 3281 1617 3432 
Q 1894 3584 2278 3584 
Q 2916 3584 3314 3078 
Q 3713 2572 3713 1747 
Q 3713 922 3314 415 
Q 2916 -91 2278 -91 
Q 1894 -91 1617 61 
Q 1341 213 1159 525 
L 1159 0 
L 581 0 
L 581 4863 
L 1159 4863 
L 1159 2969 
z
" id="DejaVuSans-62" transform="scale(0.015625)"/>
       <path d="M 2834 3397 
L 2834 2853 
Q 2591 2978 2328 3040 
Q 2066 3103 1784 3103 
Q 1356 3103 1142 2972 
Q 928 2841 928 2578 
Q 928 2378 1081 2264 
Q 1234 2150 1697 2047 
L 1894 2003 
Q 2506 1872 2764 1633 
Q 3022 1394 3022 966 
Q 3022 478 2636 193 
Q 2250 -91 1575 -91 
Q 1294 -91 989 -36 
Q 684 19 347 128 
L 347 722 
Q 666 556 975 473 
Q 1284 391 1588 391 
Q 1994 391 2212 530 
Q 2431 669 2431 922 
Q 2431 1156 2273 1281 
Q 2116 1406 1581 1522 
L 1381 1569 
Q 847 1681 609 1914 
Q 372 2147 372 2553 
Q 372 3047 722 3315 
Q 1072 3584 1716 3584 
Q 2034 3584 2315 3537 
Q 2597 3491 2834 3397 
z
" id="DejaVuSans-73" transform="scale(0.015625)"/>
       <path d="M 544 1381 
L 544 3500 
L 1119 3500 
L 1119 1403 
Q 1119 906 1312 657 
Q 1506 409 1894 409 
Q 2359 409 2629 706 
Q 2900 1003 2900 1516 
L 2900 3500 
L 3475 3500 
L 3475 0 
L 2900 0 
L 2900 538 
Q 2691 219 2414 64 
Q 2138 -91 1772 -91 
Q 1169 -91 856 284 
Q 544 659 544 1381 
z
M 1991 3584 
L 1991 3584 
z
" id="DejaVuSans-75" transform="scale(0.015625)"/>
       <path d="M 3597 1894 
L 3597 1613 
L 953 1613 
Q 991 1019 1311 708 
Q 1631 397 2203 397 
Q 2534 397 2845 478 
Q 3156 559 3463 722 
L 3463 178 
Q 3153 47 2828 -22 
Q 2503 -91 2169 -91 
Q 1331 -91 842 396 
Q 353 884 353 1716 
Q 353 2575 817 3079 
Q 1281 3584 2069 3584 
Q 2775 3584 3186 3129 
Q 3597 2675 3597 1894 
z
M 3022 2063 
Q 3016 2534 2758 2815 
Q 2500 3097 2075 3097 
Q 1594 3097 1305 2825 
Q 1016 2553 972 2059 
L 3022 2063 
z
" id="DejaVuSans-65" transform="scale(0.015625)"/>
       <path d="M 3809 666 
L 3809 1919 
L 2778 1919 
L 2778 2438 
L 4434 2438 
L 4434 434 
Q 4069 175 3628 42 
Q 3188 -91 2688 -91 
Q 1594 -91 976 548 
Q 359 1188 359 2328 
Q 359 3472 976 4111 
Q 1594 4750 2688 4750 
Q 3144 4750 3555 4637 
Q 3966 4525 4313 4306 
L 4313 3634 
Q 3963 3931 3569 4081 
Q 3175 4231 2741 4231 
Q 1884 4231 1454 3753 
Q 1025 3275 1025 2328 
Q 1025 1384 1454 906 
Q 1884 428 2741 428 
Q 3075 428 3337 486 
Q 3600 544 3809 666 
z
" id="DejaVuSans-47" transform="scale(0.015625)"/>
       <path d="M 2906 2969 
L 2906 4863 
L 3481 4863 
L 3481 0 
L 2906 0 
L 2906 525 
Q 2725 213 2448 61 
Q 2172 -91 1784 -91 
Q 1150 -91 751 415 
Q 353 922 353 1747 
Q 353 2572 751 3078 
Q 1150 3584 1784 3584 
Q 2172 3584 2448 3432 
Q 2725 3281 2906 2969 
z
M 947 1747 
Q 947 1113 1208 752 
Q 1469 391 1925 391 
Q 2381 391 2643 752 
Q 2906 1113 2906 1747 
Q 2906 2381 2643 2742 
Q 2381 3103 1925 3103 
Q 1469 3103 1208 2742 
Q 947 2381 947 1747 
z
" id="DejaVuSans-64" transform="scale(0.015625)"/>
       <path d="M 603 3500 
L 1178 3500 
L 1178 0 
L 603 0 
L 603 3500 
z
M 603 4863 
L 1178 4863 
L 1178 4134 
L 603 4134 
L 603 4863 
z
" id="DejaVuSans-69" transform="scale(0.015625)"/>
       <path d="M 3513 2113 
L 3513 0 
L 2938 0 
L 2938 2094 
Q 2938 2591 2744 2837 
Q 2550 3084 2163 3084 
Q 1697 3084 1428 2787 
Q 1159 2491 1159 1978 
L 1159 0 
L 581 0 
L 581 3500 
L 1159 3500 
L 1159 2956 
Q 1366 3272 1645 3428 
Q 1925 3584 2291 3584 
Q 2894 3584 3203 3211 
Q 3513 2838 3513 2113 
z
" id="DejaVuSans-6e" transform="scale(0.015625)"/>
       <path d="M 1344 4891 
L 1344 -1509 
L 813 -1509 
L 813 4891 
L 1344 4891 
z
" id="DejaVuSans-7c" transform="scale(0.015625)"/>
       <path d="M 1366 -91 
Q 925 -91 638 175 
Q 297 491 297 1063 
Q 297 1656 597 2119 
Q 906 2594 1463 2594 
Q 1828 2594 2116 2366 
Q 2284 2231 2400 2006 
Q 2441 2259 2441 2547 
Q 2441 2969 2341 3213 
Q 2119 3753 1531 3753 
Q 1309 3753 966 3616 
L 966 4141 
Q 1328 4238 1653 4238 
Q 2491 4238 2847 3469 
Q 3013 3106 3013 2566 
Q 3013 2213 2934 1803 
Q 2738 778 2228 291 
Q 1828 -91 1366 -91 
z
M 831 969 
Q 831 656 969 488 
Q 1116 309 1341 309 
Q 1541 309 1700 450 
Q 1925 644 2091 959 
Q 2228 1219 2297 1497 
Q 2019 2169 1538 2169 
Q 1125 2169 944 1625 
Q 831 1288 831 969 
z
" id="DejaVuSans-2202" transform="scale(0.015625)"/>
       <path d="M 2913 2219 
L 925 2219 
Q 791 1284 928 888 
Q 1100 400 1566 400 
Q 2034 400 2391 891 
Q 2703 1322 2913 2219 
z
M 3009 2750 
Q 3094 3638 2984 3950 
Q 2813 4444 2353 4444 
Q 1875 4444 1525 3956 
Q 1250 3563 1034 2750 
L 3009 2750 
z
M 2444 4913 
Q 3194 4913 3494 4250 
Q 3794 3591 3566 2422 
Q 3341 1256 2781 594 
Q 2225 -72 1475 -72 
Q 722 -72 425 594 
Q 128 1256 353 2422 
Q 581 3591 1134 4250 
Q 1691 4913 2444 4913 
z
" id="DejaVuSans-Oblique-3b8" transform="scale(0.015625)"/>
       <path d="M 1172 4863 
L 1747 4863 
L 1197 2028 
L 3169 3500 
L 3916 3500 
L 1716 1825 
L 3322 0 
L 2625 0 
L 1131 1709 
L 800 0 
L 225 0 
L 1172 4863 
z
" id="DejaVuSans-Oblique-6b" transform="scale(0.015625)"/>
       <path d="M 4447 4306 
L 4319 3641 
Q 4019 3944 3683 4091 
Q 3347 4238 2956 4238 
Q 2422 4238 2017 3981 
Q 1613 3725 1319 3200 
Q 1131 2863 1032 2486 
Q 934 2109 934 1728 
Q 934 1091 1264 756 
Q 1594 422 2222 422 
Q 2656 422 3056 561 
Q 3456 700 3834 978 
L 3688 231 
Q 3316 72 2936 -9 
Q 2556 -91 2175 -91 
Q 1278 -91 773 396 
Q 269 884 269 1753 
Q 269 2309 461 2846 
Q 653 3384 1013 3828 
Q 1394 4300 1883 4525 
Q 2372 4750 3022 4750 
Q 3422 4750 3780 4639 
Q 4138 4528 4447 4306 
z
" id="DejaVuSans-Oblique-43" transform="scale(0.015625)"/>
      </defs>
      <use transform="translate(0 0.828125)" xlink:href="#DejaVuSans-41"/>
      <use transform="translate(68.408203 0.828125)" xlink:href="#DejaVuSans-62"/>
      <use transform="translate(131.884766 0.828125)" xlink:href="#DejaVuSans-73"/>
      <use transform="translate(183.984375 0.828125)" xlink:href="#DejaVuSans-6f"/>
      <use transform="translate(245.166016 0.828125)" xlink:href="#DejaVuSans-6c"/>
      <use transform="translate(272.949219 0.828125)" xlink:href="#DejaVuSans-75"/>
      <use transform="translate(336.328125 0.828125)" xlink:href="#DejaVuSans-74"/>
      <use transform="translate(375.537109 0.828125)" xlink:href="#DejaVuSans-65"/>
      <use transform="translate(437.060547 0.828125)" xlink:href="#DejaVuSans-20"/>
      <use transform="translate(468.847656 0.828125)" xlink:href="#DejaVuSans-47"/>
      <use transform="translate(546.337891 0.828125)" xlink:href="#DejaVuSans-72"/>
      <use transform="translate(587.451172 0.828125)" xlink:href="#DejaVuSans-61"/>
      <use transform="translate(648.730469 0.828125)" xlink:href="#DejaVuSans-64"/>
      <use transform="translate(712.207031 0.828125)" xlink:href="#DejaVuSans-69"/>
      <use transform="translate(739.990234 0.828125)" xlink:href="#DejaVuSans-65"/>
      <use transform="translate(801.513672 0.828125)" xlink:href="#DejaVuSans-6e"/>
      <use transform="translate(864.892578 0.828125)" xlink:href="#DejaVuSans-74"/>
      <use transform="translate(904.101562 0.828125)" xlink:href="#DejaVuSans-20"/>
      <use transform="translate(935.888672 1.328125)" xlink:href="#DejaVuSans-7c"/>
      <use transform="translate(969.580078 1.328125)" xlink:href="#DejaVuSans-2202"/>
      <use transform="translate(1022.246094 -15.078125)scale(0.7)" xlink:href="#DejaVuSans-Oblique-3b8"/>
      <use transform="translate(1065.073242 -26.5625)scale(0.49)" xlink:href="#DejaVuSans-Oblique-6b"/>
      <use transform="translate(1098.097656 1.328125)" xlink:href="#DejaVuSans-Oblique-43"/>
      <use transform="translate(1167.921875 1.328125)" xlink:href="#DejaVuSans-7c"/>
      <path d="M 935.888672 89.5 
L 935.888672 95.75 
L 1201.613281 95.75 
L 1201.613281 89.5 
L 935.888672 89.5 
z
"/>
     </g>
    </g>
   </g>
   <g id="line2d_58">
    <path clip-path="url(#p055bcf89ac)" d="M 99.682717 38.634459 
L 100.596179 42.536557 
L 101.509642 41.642377 
L 102.423105 43.351896 
L 103.336568 44.702357 
L 104.25003 45.930691 
L 106.076956 45.45218 
L 107.903881 47.237698 
L 112.471195 49.441012 
L 117.038508 52.9528 
L 135.307762 63.892604 
L 162.711643 80.051581 
L 190.115524 96.12826 
L 281.461794 152.054464 
L 372.808064 211.040847 
L 464.154334 266.888097 
" style="fill:none;stroke:#eb9872;stroke-linecap:square;stroke-width:1.2;"/>
   </g>
   <g id="line2d_59">
    <path clip-path="url(#p055bcf89ac)" d="M 99.682717 38.634459 
L 100.596179 42.536557 
L 101.509642 41.642377 
L 102.423105 43.351896 
L 103.336568 44.702357 
L 104.25003 45.930691 
L 106.076956 45.45218 
L 107.903881 47.237698 
L 112.471195 49.441012 
L 117.038508 52.9528 
L 135.307762 63.892604 
L 162.711643 80.051581 
L 190.115524 96.12826 
L 281.461794 152.054464 
L 372.808064 211.040847 
L 464.154334 266.888097 
" style="fill:none;stroke:#eb9872;stroke-dasharray:4.8,1.8;stroke-dashoffset:0;stroke-width:1.2;"/>
   </g>
   <g id="line2d_60">
    <path clip-path="url(#p055bcf89ac)" d="M 99.473084 38.55789 
L 100.176914 42.373636 
L 100.880744 41.38521 
L 101.584575 43.008181 
L 102.288405 44.26227 
L 102.992235 45.375577 
L 104.399895 44.694762 
L 105.807555 46.226119 
L 109.326706 47.7819 
L 112.845857 50.681737 
L 126.92246 59.071748 
L 148.037364 71.324857 
L 169.152269 83.517111 
L 239.535283 126.732998 
L 309.918298 172.625693 
L 380.301313 215.839204 
" style="fill:none;stroke:#e77e63;stroke-linecap:square;stroke-width:1.2;"/>
   </g>
   <g id="line2d_61">
    <path clip-path="url(#p055bcf89ac)" d="M 99.568534 38.592438 
L 100.367814 42.44834 
L 101.167094 41.503872 
L 101.966373 43.167491 
L 102.765653 44.466692 
L 103.564933 45.633207 
L 105.163493 45.047116 
L 106.762053 46.695093 
L 110.758452 48.545786 
L 114.754851 51.728013 
L 130.740449 61.293258 
L 154.718844 75.349064 
L 178.69724 89.334587 
L 258.625227 138.427768 
L 338.553213 190.312974 
L 418.481199 239.380288 
" style="fill:none;stroke:#e77e63;stroke-dasharray:4.8,1.8;stroke-dashoffset:0;stroke-width:1.2;"/>
   </g>
   <g id="line2d_62">
    <path clip-path="url(#p055bcf89ac)" d="M 99.358901 38.513218 
L 99.948549 42.282441 
L 100.538196 41.24403 
L 101.127843 42.819249 
L 101.717491 44.021795 
L 102.307138 45.072217 
L 103.486432 44.279827 
L 104.665727 45.67008 
L 107.613964 46.865091 
L 110.5622 49.421811 
L 122.355146 56.382599 
L 140.044566 66.436084 
L 157.733985 76.439985 
L 216.698716 112.488709 
L 275.663447 151.001102 
L 334.628178 187.053393 
" style="fill:none;stroke:#e2655c;stroke-linecap:square;stroke-width:1.2;"/>
   </g>
   <g id="line2d_63">
    <path clip-path="url(#p055bcf89ac)" d="M 99.454351 38.550458 
L 100.139448 42.360185 
L 100.824545 41.365454 
L 101.509642 42.983193 
L 102.194739 44.231111 
L 102.879836 45.335799 
L 104.25003 44.64174 
L 105.620224 46.151419 
L 109.045709 47.649099 
L 112.471195 50.500215 
L 126.173135 58.683821 
L 146.726046 70.621594 
L 167.278957 82.494907 
L 235.788659 124.708245 
L 304.298362 169.447505 
L 372.808064 211.68038 
" style="fill:none;stroke:#e2655c;stroke-dasharray:4.8,1.8;stroke-dashoffset:0;stroke-width:1.2;"/>
   </g>
   <g id="line2d_64">
    <path clip-path="url(#p055bcf89ac)" d="M 99.244718 38.473707 
L 99.720183 42.196393 
L 100.195647 41.106142 
L 100.671112 42.635711 
L 101.146576 43.785112 
L 101.622041 44.772139 
L 102.57297 43.869373 
L 103.523899 45.117356 
L 105.901221 45.948042 
L 108.278543 48.161436 
L 117.787833 53.70535 
L 132.051767 61.576275 
L 146.315701 69.398853 
L 193.862148 98.348053 
L 241.408596 129.508155 
L 288.955043 158.489713 
" style="fill:none;stroke:#d64f5f;stroke-linecap:square;stroke-width:1.2;"/>
   </g>
   <g id="line2d_65">
    <path clip-path="url(#p055bcf89ac)" d="M 99.340168 38.508501 
L 99.911082 42.272077 
L 100.481997 41.227097 
L 101.052911 42.798982 
L 101.623825 43.995586 
L 102.194739 45.038446 
L 103.336568 44.236238 
L 104.478396 45.607322 
L 107.332967 46.749883 
L 110.187538 49.266661 
L 121.605822 56.065017 
L 138.733247 65.869114 
L 155.860673 75.612315 
L 212.952092 110.897838 
L 270.04351 148.444898 
L 327.134929 183.792042 
" style="fill:none;stroke:#d64f5f;stroke-dasharray:4.8,1.8;stroke-dashoffset:0;stroke-width:1.2;"/>
   </g>
   <g id="line2d_66">
    <path clip-path="url(#p055bcf89ac)" d="M 99.130536 38.429231 
L 99.491817 42.106021 
L 99.853099 40.966879 
L 100.214381 42.450149 
L 100.575662 43.549626 
L 100.936944 44.475929 
L 101.659507 43.466028 
L 102.38207 44.576873 
L 104.188479 45.056777 
L 105.994887 46.935233 
L 113.220519 51.103551 
L 124.058968 56.845443 
L 134.897417 62.539238 
L 171.025581 84.58624 
L 207.153744 108.557183 
L 243.281908 130.732592 
" style="fill:none;stroke:#c14168;stroke-linecap:square;stroke-width:1.2;"/>
   </g>
   <g id="line2d_67">
    <path clip-path="url(#p055bcf89ac)" d="M 99.225985 38.466503 
L 99.682717 42.183899 
L 100.139448 41.088634 
L 100.596179 42.614633 
L 101.052911 43.759842 
L 101.509642 44.740816 
L 102.423105 43.830221 
L 103.336568 45.062011 
L 105.620224 45.848347 
L 107.903881 48.026994 
L 117.038508 53.433923 
L 130.740449 61.086988 
L 144.442389 68.682913 
L 190.115524 96.981449 
L 235.788659 127.289241 
L 281.461794 155.696467 
" style="fill:none;stroke:#c14168;stroke-dasharray:4.8,1.8;stroke-dashoffset:0;stroke-width:1.2;"/>
   </g>
   <g id="line2d_68">
    <path clip-path="url(#p055bcf89ac)" d="M 99.016353 38.389893 
L 99.263452 42.020756 
L 99.51055 40.830906 
L 99.757649 42.269975 
L 100.004748 43.31802 
L 100.251847 44.183199 
L 100.746044 43.067532 
L 101.240242 44.040283 
L 102.475736 44.167613 
L 103.71123 45.708823 
L 108.653206 48.511833 
L 116.06617 52.13547 
L 123.479134 55.721695 
L 148.189013 70.910839 
L 172.898893 87.752003 
L 197.608773 103.16987 
" style="fill:none;stroke:#aa3a6e;stroke-linecap:square;stroke-width:1.2;"/>
   </g>
   <g id="line2d_69">
    <path clip-path="url(#p055bcf89ac)" d="M 99.111803 38.424498 
L 99.454351 42.095702 
L 99.7969 40.95014 
L 100.139448 42.43024 
L 100.481997 43.523994 
L 100.824545 44.443042 
L 101.509642 43.423852 
L 102.194739 44.515802 
L 103.907482 44.944732 
L 105.620224 46.780749 
L 112.471195 50.78965 
L 122.74765 56.271661 
L 133.024105 61.709341 
L 167.278957 82.958462 
L 201.533808 105.981134 
L 235.788659 127.398848 
" style="fill:none;stroke:#aa3a6e;stroke-dasharray:4.8,1.8;stroke-dashoffset:0;stroke-width:1.2;"/>
   </g>
   <g id="line2d_70">
    <path clip-path="url(#p055bcf89ac)" d="M 98.90217 38.345586 
L 99.035086 41.931062 
L 99.168002 40.693117 
L 99.300918 42.086904 
L 99.433834 43.085684 
L 99.56675 43.891815 
L 99.832582 42.671596 
L 100.098414 43.509032 
L 100.762993 43.290705 
L 101.427573 44.498013 
L 104.085892 45.939931 
L 108.073371 47.451163 
L 112.06085 48.941115 
L 125.352446 57.257311 
L 138.644042 66.977626 
L 151.935638 75.595294 
" style="fill:none;stroke:#923371;stroke-linecap:square;stroke-width:1.2;"/>
   </g>
   <g id="line2d_71">
    <path clip-path="url(#p055bcf89ac)" d="M 98.99762 38.38255 
L 99.225985 42.00759 
L 99.454351 40.811753 
L 99.682717 42.245987 
L 99.911082 43.28822 
L 100.139448 44.145376 
L 100.596179 43.017465 
L 101.052911 43.969189 
L 102.194739 44.039772 
L 103.336568 45.529951 
L 107.903881 48.13049 
L 114.754851 51.430686 
L 121.605822 54.696945 
L 144.442389 68.846062 
L 167.278957 84.53737 
L 190.115524 98.923913 
" style="fill:none;stroke:#923371;stroke-dasharray:4.8,1.8;stroke-dashoffset:0;stroke-width:1.2;"/>
   </g>
   <g id="line2d_72">
    <path clip-path="url(#p055bcf89ac)" d="M 98.787987 38.306278 
L 98.80672 41.845816 
L 98.825453 40.55701 
L 98.844187 41.906398 
L 98.86292 42.852956 
L 98.881653 43.597756 
L 98.919119 42.27026 
L 98.956585 42.967089 
L 99.050251 42.390523 
L 99.143916 43.252912 
L 99.518579 43.294044 
L 100.080573 42.63316 
L 100.642566 41.962216 
L 102.515878 43.189871 
L 104.389191 45.617294 
L 106.262503 47.20406 
" style="fill:none;stroke:#7a2e70;stroke-linecap:square;stroke-width:1.2;"/>
   </g>
   <g id="line2d_73">
    <path clip-path="url(#p055bcf89ac)" d="M 98.883437 38.340586 
L 98.99762 41.919474 
L 99.111803 40.673361 
L 99.225985 42.061733 
L 99.340168 43.052031 
L 99.454351 43.847646 
L 99.682717 42.610838 
L 99.911082 43.421462 
L 100.481997 43.132839 
L 101.052911 44.275416 
L 103.336568 45.458185 
L 106.762053 46.562405 
L 110.187538 47.646224 
L 121.605822 54.638085 
L 133.024105 62.965082 
L 144.442389 70.267648 
" style="fill:none;stroke:#7a2e70;stroke-dasharray:4.8,1.8;stroke-dashoffset:0;stroke-width:1.2;"/>
   </g>
   <g id="line2d_74">
    <path clip-path="url(#p055bcf89ac)" d="M 98.769254 41.236786 
" style="fill:none;stroke:#62296a;stroke-linecap:square;stroke-width:1.2;"/>
   </g>
   <g id="line2d_75">
    <path clip-path="url(#p055bcf89ac)" d="M 98.769254 41.236786 
" style="fill:none;stroke:#62296a;stroke-dasharray:4.8,1.8;stroke-dashoffset:0;stroke-width:1.2;"/>
   </g>
   <g id="line2d_76"/>
   <g id="line2d_77"/>
   <g id="line2d_78"/>
   <g id="line2d_79"/>
   <g id="line2d_80"/>
   <g id="line2d_81"/>
   <g id="line2d_82"/>
   <g id="line2d_83"/>
   <g id="line2d_84"/>
   <g id="line2d_85"/>
   <g id="line2d_86"/>
   <g id="patch_3">
    <path d="M 80.5 278.317187 
L 80.5 26.877187 
" style="fill:none;stroke:#000000;stroke-linecap:square;stroke-linejoin:miter;"/>
   </g>
   <g id="patch_4">
    <path d="M 80.5 278.317187 
L 482.423588 278.317187 
" style="fill:none;stroke:#000000;stroke-linecap:square;stroke-linejoin:miter;"/>
   </g>
   <g id="text_14">
    <!-- 8 Qubits -->
    <g transform="translate(243.656169 20.877187)scale(0.18 -0.18)">
     <defs>
      <path d="M 2034 2216 
Q 1584 2216 1326 1975 
Q 1069 1734 1069 1313 
Q 1069 891 1326 650 
Q 1584 409 2034 409 
Q 2484 409 2743 651 
Q 3003 894 3003 1313 
Q 3003 1734 2745 1975 
Q 2488 2216 2034 2216 
z
M 1403 2484 
Q 997 2584 770 2862 
Q 544 3141 544 3541 
Q 544 4100 942 4425 
Q 1341 4750 2034 4750 
Q 2731 4750 3128 4425 
Q 3525 4100 3525 3541 
Q 3525 3141 3298 2862 
Q 3072 2584 2669 2484 
Q 3125 2378 3379 2068 
Q 3634 1759 3634 1313 
Q 3634 634 3220 271 
Q 2806 -91 2034 -91 
Q 1263 -91 848 271 
Q 434 634 434 1313 
Q 434 1759 690 2068 
Q 947 2378 1403 2484 
z
M 1172 3481 
Q 1172 3119 1398 2916 
Q 1625 2713 2034 2713 
Q 2441 2713 2670 2916 
Q 2900 3119 2900 3481 
Q 2900 3844 2670 4047 
Q 2441 4250 2034 4250 
Q 1625 4250 1398 4047 
Q 1172 3844 1172 3481 
z
" id="DejaVuSans-38" transform="scale(0.015625)"/>
      <path d="M 2522 4238 
Q 1834 4238 1429 3725 
Q 1025 3213 1025 2328 
Q 1025 1447 1429 934 
Q 1834 422 2522 422 
Q 3209 422 3611 934 
Q 4013 1447 4013 2328 
Q 4013 3213 3611 3725 
Q 3209 4238 2522 4238 
z
M 3406 84 
L 4238 -825 
L 3475 -825 
L 2784 -78 
Q 2681 -84 2626 -87 
Q 2572 -91 2522 -91 
Q 1538 -91 948 567 
Q 359 1225 359 2328 
Q 359 3434 948 4092 
Q 1538 4750 2522 4750 
Q 3503 4750 4090 4092 
Q 4678 3434 4678 2328 
Q 4678 1516 4351 937 
Q 4025 359 3406 84 
z
" id="DejaVuSans-51" transform="scale(0.015625)"/>
     </defs>
     <use xlink:href="#DejaVuSans-38"/>
     <use x="63.623047" xlink:href="#DejaVuSans-20"/>
     <use x="95.410156" xlink:href="#DejaVuSans-51"/>
     <use x="174.121094" xlink:href="#DejaVuSans-75"/>
     <use x="237.5" xlink:href="#DejaVuSans-62"/>
     <use x="300.976562" xlink:href="#DejaVuSans-69"/>
     <use x="328.759766" xlink:href="#DejaVuSans-74"/>
     <use x="367.96875" xlink:href="#DejaVuSans-73"/>
    </g>
   </g>
   <g id="legend_1">
    <g id="patch_5">
     <path d="M 505.719768 336.982188 
L 679.522268 336.982188 
Q 682.722268 336.982188 682.722268 333.782188 
L 682.722268 30.077187 
Q 682.722268 26.877187 679.522268 26.877187 
L 505.719768 26.877187 
Q 502.519768 26.877187 502.519768 30.077187 
L 502.519768 333.782188 
Q 502.519768 336.982188 505.719768 336.982188 
z
" style="fill:#ffffff;opacity:0.8;stroke:#cccccc;stroke-linejoin:miter;stroke-width:0.8;"/>
    </g>
    <g id="text_15">
     <!-- $n_d$ -->
     <g transform="translate(553.719768 45.434688)scale(0.16 -0.16)">
      <defs>
       <path d="M 3566 2113 
L 3156 0 
L 2578 0 
L 2988 2091 
Q 3016 2238 3031 2350 
Q 3047 2463 3047 2528 
Q 3047 2791 2881 2937 
Q 2716 3084 2419 3084 
Q 1956 3084 1622 2776 
Q 1288 2469 1184 1941 
L 800 0 
L 225 0 
L 903 3500 
L 1478 3500 
L 1363 2950 
Q 1603 3253 1940 3418 
Q 2278 3584 2650 3584 
Q 3113 3584 3367 3334 
Q 3622 3084 3622 2631 
Q 3622 2519 3608 2391 
Q 3594 2263 3566 2113 
z
" id="DejaVuSans-Oblique-6e" transform="scale(0.015625)"/>
       <path d="M 2675 525 
Q 2444 222 2128 65 
Q 1813 -91 1428 -91 
Q 903 -91 598 267 
Q 294 625 294 1247 
Q 294 1766 478 2236 
Q 663 2706 1013 3078 
Q 1244 3325 1534 3454 
Q 1825 3584 2144 3584 
Q 2481 3584 2739 3421 
Q 2997 3259 3138 2956 
L 3513 4863 
L 4091 4863 
L 3144 0 
L 2566 0 
L 2675 525 
z
M 891 1350 
Q 891 897 1095 644 
Q 1300 391 1663 391 
Q 1931 391 2161 520 
Q 2391 650 2566 903 
Q 2750 1166 2856 1509 
Q 2963 1853 2963 2188 
Q 2963 2622 2758 2865 
Q 2553 3109 2194 3109 
Q 1922 3109 1687 2981 
Q 1453 2853 1288 2613 
Q 1106 2353 998 2009 
Q 891 1666 891 1350 
z
" id="DejaVuSans-Oblique-64" transform="scale(0.015625)"/>
      </defs>
      <use xlink:href="#DejaVuSans-Oblique-6e"/>
      <use transform="translate(63.378906 -16.40625)scale(0.7)" xlink:href="#DejaVuSans-Oblique-64"/>
     </g>
    </g>
    <g id="line2d_87">
     <path d="M 508.919768 63.319688 
L 540.919768 63.319688 
" style="fill:none;stroke:#eb9872;stroke-linecap:square;stroke-width:1.2;"/>
    </g>
    <g id="line2d_88"/>
    <g id="text_16">
     <!-- 8 -->
     <g transform="translate(553.719768 68.919688)scale(0.16 -0.16)">
      <use xlink:href="#DejaVuSans-38"/>
     </g>
    </g>
    <g id="line2d_89">
     <path d="M 508.919768 86.804688 
L 540.919768 86.804688 
" style="fill:none;stroke:#e77e63;stroke-linecap:square;stroke-width:1.2;"/>
    </g>
    <g id="line2d_90"/>
    <g id="text_17">
     <!-- 7 -->
     <g transform="translate(553.719768 92.404688)scale(0.16 -0.16)">
      <defs>
       <path d="M 525 4666 
L 3525 4666 
L 3525 4397 
L 1831 0 
L 1172 0 
L 2766 4134 
L 525 4134 
L 525 4666 
z
" id="DejaVuSans-37" transform="scale(0.015625)"/>
      </defs>
      <use xlink:href="#DejaVuSans-37"/>
     </g>
    </g>
    <g id="line2d_91">
     <path d="M 508.919768 110.289688 
L 540.919768 110.289688 
" style="fill:none;stroke:#e2655c;stroke-linecap:square;stroke-width:1.2;"/>
    </g>
    <g id="line2d_92"/>
    <g id="text_18">
     <!-- 6 -->
     <g transform="translate(553.719768 115.889688)scale(0.16 -0.16)">
      <defs>
       <path d="M 2113 2584 
Q 1688 2584 1439 2293 
Q 1191 2003 1191 1497 
Q 1191 994 1439 701 
Q 1688 409 2113 409 
Q 2538 409 2786 701 
Q 3034 994 3034 1497 
Q 3034 2003 2786 2293 
Q 2538 2584 2113 2584 
z
M 3366 4563 
L 3366 3988 
Q 3128 4100 2886 4159 
Q 2644 4219 2406 4219 
Q 1781 4219 1451 3797 
Q 1122 3375 1075 2522 
Q 1259 2794 1537 2939 
Q 1816 3084 2150 3084 
Q 2853 3084 3261 2657 
Q 3669 2231 3669 1497 
Q 3669 778 3244 343 
Q 2819 -91 2113 -91 
Q 1303 -91 875 529 
Q 447 1150 447 2328 
Q 447 3434 972 4092 
Q 1497 4750 2381 4750 
Q 2619 4750 2861 4703 
Q 3103 4656 3366 4563 
z
" id="DejaVuSans-36" transform="scale(0.015625)"/>
      </defs>
      <use xlink:href="#DejaVuSans-36"/>
     </g>
    </g>
    <g id="line2d_93">
     <path d="M 508.919768 133.774688 
L 540.919768 133.774688 
" style="fill:none;stroke:#d64f5f;stroke-linecap:square;stroke-width:1.2;"/>
    </g>
    <g id="line2d_94"/>
    <g id="text_19">
     <!-- 5 -->
     <g transform="translate(553.719768 139.374688)scale(0.16 -0.16)">
      <use xlink:href="#DejaVuSans-35"/>
     </g>
    </g>
    <g id="line2d_95">
     <path d="M 508.919768 157.259688 
L 540.919768 157.259688 
" style="fill:none;stroke:#c14168;stroke-linecap:square;stroke-width:1.2;"/>
    </g>
    <g id="line2d_96"/>
    <g id="text_20">
     <!-- 4 -->
     <g transform="translate(553.719768 162.859688)scale(0.16 -0.16)">
      <use xlink:href="#DejaVuSans-34"/>
     </g>
    </g>
    <g id="line2d_97">
     <path d="M 508.919768 180.744688 
L 540.919768 180.744688 
" style="fill:none;stroke:#aa3a6e;stroke-linecap:square;stroke-width:1.2;"/>
    </g>
    <g id="line2d_98"/>
    <g id="text_21">
     <!-- 3 -->
     <g transform="translate(553.719768 186.344688)scale(0.16 -0.16)">
      <use xlink:href="#DejaVuSans-33"/>
     </g>
    </g>
    <g id="line2d_99">
     <path d="M 508.919768 204.229688 
L 540.919768 204.229688 
" style="fill:none;stroke:#923371;stroke-linecap:square;stroke-width:1.2;"/>
    </g>
    <g id="line2d_100"/>
    <g id="text_22">
     <!-- 2 -->
     <g transform="translate(553.719768 209.829688)scale(0.16 -0.16)">
      <use xlink:href="#DejaVuSans-32"/>
     </g>
    </g>
    <g id="line2d_101">
     <path d="M 508.919768 227.714688 
L 540.919768 227.714688 
" style="fill:none;stroke:#7a2e70;stroke-linecap:square;stroke-width:1.2;"/>
    </g>
    <g id="line2d_102"/>
    <g id="text_23">
     <!-- 1 -->
     <g transform="translate(553.719768 233.314688)scale(0.16 -0.16)">
      <use xlink:href="#DejaVuSans-31"/>
     </g>
    </g>
    <g id="line2d_103">
     <path d="M 508.919768 251.199688 
L 540.919768 251.199688 
" style="fill:none;stroke:#62296a;stroke-linecap:square;stroke-width:1.2;"/>
    </g>
    <g id="line2d_104"/>
    <g id="text_24">
     <!-- 0 -->
     <g transform="translate(553.719768 256.799688)scale(0.16 -0.16)">
      <use xlink:href="#DejaVuSans-30"/>
     </g>
    </g>
    <g id="text_25">
     <!-- Setup: -->
     <g transform="translate(553.719768 280.284688)scale(0.16 -0.16)">
      <defs>
       <path d="M 3425 4513 
L 3425 3897 
Q 3066 4069 2747 4153 
Q 2428 4238 2131 4238 
Q 1616 4238 1336 4038 
Q 1056 3838 1056 3469 
Q 1056 3159 1242 3001 
Q 1428 2844 1947 2747 
L 2328 2669 
Q 3034 2534 3370 2195 
Q 3706 1856 3706 1288 
Q 3706 609 3251 259 
Q 2797 -91 1919 -91 
Q 1588 -91 1214 -16 
Q 841 59 441 206 
L 441 856 
Q 825 641 1194 531 
Q 1563 422 1919 422 
Q 2459 422 2753 634 
Q 3047 847 3047 1241 
Q 3047 1584 2836 1778 
Q 2625 1972 2144 2069 
L 1759 2144 
Q 1053 2284 737 2584 
Q 422 2884 422 3419 
Q 422 4038 858 4394 
Q 1294 4750 2059 4750 
Q 2388 4750 2728 4690 
Q 3069 4631 3425 4513 
z
" id="DejaVuSans-53" transform="scale(0.015625)"/>
       <path d="M 1159 525 
L 1159 -1331 
L 581 -1331 
L 581 3500 
L 1159 3500 
L 1159 2969 
Q 1341 3281 1617 3432 
Q 1894 3584 2278 3584 
Q 2916 3584 3314 3078 
Q 3713 2572 3713 1747 
Q 3713 922 3314 415 
Q 2916 -91 2278 -91 
Q 1894 -91 1617 61 
Q 1341 213 1159 525 
z
M 3116 1747 
Q 3116 2381 2855 2742 
Q 2594 3103 2138 3103 
Q 1681 3103 1420 2742 
Q 1159 2381 1159 1747 
Q 1159 1113 1420 752 
Q 1681 391 2138 391 
Q 2594 391 2855 752 
Q 3116 1113 3116 1747 
z
" id="DejaVuSans-70" transform="scale(0.015625)"/>
       <path d="M 750 794 
L 1409 794 
L 1409 0 
L 750 0 
L 750 794 
z
M 750 3309 
L 1409 3309 
L 1409 2516 
L 750 2516 
L 750 3309 
z
" id="DejaVuSans-3a" transform="scale(0.015625)"/>
      </defs>
      <use xlink:href="#DejaVuSans-53"/>
      <use x="63.476562" xlink:href="#DejaVuSans-65"/>
      <use x="125" xlink:href="#DejaVuSans-74"/>
      <use x="164.208984" xlink:href="#DejaVuSans-75"/>
      <use x="227.587891" xlink:href="#DejaVuSans-70"/>
      <use x="291.064453" xlink:href="#DejaVuSans-3a"/>
     </g>
    </g>
    <g id="line2d_105">
     <path d="M 508.919768 298.169688 
L 540.919768 298.169688 
" style="fill:none;stroke:#333333;stroke-linecap:square;stroke-width:1.2;"/>
    </g>
    <g id="line2d_106"/>
    <g id="text_26">
     <!-- Clean and dirty -->
     <g transform="translate(553.719768 303.769688)scale(0.16 -0.16)">
      <defs>
       <path d="M 4122 4306 
L 4122 3641 
Q 3803 3938 3442 4084 
Q 3081 4231 2675 4231 
Q 1875 4231 1450 3742 
Q 1025 3253 1025 2328 
Q 1025 1406 1450 917 
Q 1875 428 2675 428 
Q 3081 428 3442 575 
Q 3803 722 4122 1019 
L 4122 359 
Q 3791 134 3420 21 
Q 3050 -91 2638 -91 
Q 1578 -91 968 557 
Q 359 1206 359 2328 
Q 359 3453 968 4101 
Q 1578 4750 2638 4750 
Q 3056 4750 3426 4639 
Q 3797 4528 4122 4306 
z
" id="DejaVuSans-43" transform="scale(0.015625)"/>
       <path d="M 2059 -325 
Q 1816 -950 1584 -1140 
Q 1353 -1331 966 -1331 
L 506 -1331 
L 506 -850 
L 844 -850 
Q 1081 -850 1212 -737 
Q 1344 -625 1503 -206 
L 1606 56 
L 191 3500 
L 800 3500 
L 1894 763 
L 2988 3500 
L 3597 3500 
L 2059 -325 
z
" id="DejaVuSans-79" transform="scale(0.015625)"/>
      </defs>
      <use xlink:href="#DejaVuSans-43"/>
      <use x="69.824219" xlink:href="#DejaVuSans-6c"/>
      <use x="97.607422" xlink:href="#DejaVuSans-65"/>
      <use x="159.130859" xlink:href="#DejaVuSans-61"/>
      <use x="220.410156" xlink:href="#DejaVuSans-6e"/>
      <use x="283.789062" xlink:href="#DejaVuSans-20"/>
      <use x="315.576172" xlink:href="#DejaVuSans-61"/>
      <use x="376.855469" xlink:href="#DejaVuSans-6e"/>
      <use x="440.234375" xlink:href="#DejaVuSans-64"/>
      <use x="503.710938" xlink:href="#DejaVuSans-20"/>
      <use x="535.498047" xlink:href="#DejaVuSans-64"/>
      <use x="598.974609" xlink:href="#DejaVuSans-69"/>
      <use x="626.757812" xlink:href="#DejaVuSans-72"/>
      <use x="667.871094" xlink:href="#DejaVuSans-74"/>
      <use x="707.080078" xlink:href="#DejaVuSans-79"/>
     </g>
    </g>
    <g id="line2d_107">
     <path d="M 508.919768 321.654688 
L 540.919768 321.654688 
" style="fill:none;stroke:#333333;stroke-dasharray:4.8,1.8;stroke-dashoffset:0;stroke-width:1.2;"/>
    </g>
    <g id="line2d_108"/>
    <g id="text_27">
     <!-- Variable error -->
     <g transform="translate(553.719768 327.254688)scale(0.16 -0.16)">
      <defs>
       <path d="M 1831 0 
L 50 4666 
L 709 4666 
L 2188 738 
L 3669 4666 
L 4325 4666 
L 2547 0 
L 1831 0 
z
" id="DejaVuSans-56" transform="scale(0.015625)"/>
      </defs>
      <use xlink:href="#DejaVuSans-56"/>
      <use x="60.658203" xlink:href="#DejaVuSans-61"/>
      <use x="121.9375" xlink:href="#DejaVuSans-72"/>
      <use x="163.050781" xlink:href="#DejaVuSans-69"/>
      <use x="190.833984" xlink:href="#DejaVuSans-61"/>
      <use x="252.113281" xlink:href="#DejaVuSans-62"/>
      <use x="315.589844" xlink:href="#DejaVuSans-6c"/>
      <use x="343.373047" xlink:href="#DejaVuSans-65"/>
      <use x="404.896484" xlink:href="#DejaVuSans-20"/>
      <use x="436.683594" xlink:href="#DejaVuSans-65"/>
      <use x="498.207031" xlink:href="#DejaVuSans-72"/>
      <use x="537.570312" xlink:href="#DejaVuSans-72"/>
      <use x="576.433594" xlink:href="#DejaVuSans-6f"/>
      <use x="637.615234" xlink:href="#DejaVuSans-72"/>
     </g>
    </g>
   </g>
  </g>
 </g>
 <defs>
  <clipPath id="p055bcf89ac">
   <rect height="251.44" width="401.923588" x="80.5" y="26.877187"/>
  </clipPath>
 </defs>
</svg>
